PathFileType	4	(X/Y/Z)	/Users/niels/Desktop/University/Third Semester/Perception and Action/Exam/Gymnastics Motion Tracking/Code for Gym Tracking/Analyzed Data/Start Salto/stsalto_bad_id11_1_Sports2D/stsalto_bad_id11_1_Sports2D_px_person00.trc
DataRate	CameraRate	NumFrames	NumMarkers	Units	OrigDataRate	OrigDataStartFrame	OrigNumFrames
29.850746268656717	29.850746268656717	10	22	m	29.850746268656717	50	201
Frame#	Time	Hip			RHip			RKnee			RAnkle			RBigToe			RSmallToe			RHeel			LHip			LKnee			LAnkle			LBigToe			LSmallToe			LHeel			Neck			Head			Nose			RShoulder			RElbow			RWrist			LShoulder			LElbow			LWrist		
		X1	Y1	Z1	X2	Y2	Z2	X3	Y3	Z3	X4	Y4	Z4	X5	Y5	Z5	X6	Y6	Z6	X7	Y7	Z7	X8	Y8	Z8	X9	Y9	Z9	X10	Y10	Z10	X11	Y11	Z11	X12	Y12	Z12	X13	Y13	Z13	X14	Y14	Z14	X15	Y15	Z15	X16	Y16	Z16	X17	Y17	Z17	X18	Y18	Z18	X19	Y19	Z19	X20	Y20	Z20	X21	Y21	Z21	X22	Y22	Z22
50	1.675	0.4504071835994368	-0.5809850491588274	0.0	0.45291761371476913	-0.584231271844497	0.0	0.549607606981622	-0.6925392640317702	0.0	0.4995646464580807	-0.8228648152663295	0.0	0.5460163070813844	-0.8438959039910445	0.0	0.5355175889906715	-0.8471278899005795	0.0	0.4830709034963659	-0.8345329392905946	0.0	0.4514651327191465	-0.5811881938439919	0.0	0.5446058852916805	-0.690817728591145	0.0	0.497789613809722	-0.8182787292625884	0.0	0.5454500600792328	-0.839214557634785	0.0	0.5367179902555118	-0.8382827815994308	0.0	0.47861060966563534	-0.8277153982418602	0.0	0.5198028524273529	-0.41961425220940557	0.0	0.5545776028877832	-0.34956961708851386	0.0	0.5705124135690831	-0.3941072103996792	0.0	0.5128098551030414	-0.4345225130272682	0.0	0.5997000455966699	-0.4330279899262252	0.0	0.6586164695053545	-0.38206995562160884	0.0	0.5075040728181638	-0.4314240724696512	0.0	0.5920024168181398	-0.4254565999700012	0.0	0.6486710927980811	-0.3787382897558617	0.0
51	1.7085000000000001	0.45814721963243427	-0.5801610700036427	0.0	0.46031089350320264	-0.5824673501544669	0.0	0.555297686613163	-0.6928782647987719	0.0	0.5002314091765497	-0.8216503510970484	0.0	0.5458486333798414	-0.8436820446797924	0.0	0.5349892380672355	-0.8467826189014199	0.0	0.482537973867654	-0.8336626803504888	0.0	0.4585024081966413	-0.5796399732054548	0.0	0.5504978654989289	-0.6913812995148971	0.0	0.49917000909062337	-0.8173093455930777	0.0	0.5461470381302307	-0.8397154817052679	0.0	0.5375960702744019	-0.8383756032281677	0.0	0.4791287668601943	-0.82717741751277	0.0	0.5299781073470698	-0.42027037374105775	0.0	0.5683048675047397	-0.34953765692050726	0.0	0.5823443391104797	-0.39472137962619125	0.0	0.5231651716387306	-0.4341548603313699	0.0	0.611716412365726	-0.43556551160136686	0.0	0.6731808930336869	-0.3873976886655742	0.0	0.518171725770663	-0.43076053877418463	0.0	0.6027382936941398	-0.42775230510696893	0.0	0.6619984247845033	-0.3837027430859409	0.0
52	1.742	0.46554727565913423	-0.578486208198381	0.0	0.46746095667691323	-0.5796855223409403	0.0	0.5600674302872101	-0.6927938024299786	0.0	0.5008208714904808	-0.8203082644226083	0.0	0.5449135781841845	-0.8432685081194989	0.0	0.5337881108381584	-0.8463412162204105	0.0	0.4819502486230541	-0.8327655551654299	0.0	0.46543700231871316	-0.5769577121410464	0.0	0.5551782568747224	-0.6915975656187676	0.0	0.5004315753636387	-0.8159095627279409	0.0	0.5465360592017949	-0.8395190505595991	0.0	0.5385158255868958	-0.8375876684524495	0.0	0.4790956112309412	-0.8262354255338685	0.0	0.5402229287610854	-0.420464732632549	0.0	0.58263019667793	-0.3489889433031154	0.0	0.5942548985512748	-0.3946780402862841	0.0	0.5338548541234818	-0.43312896152354663	0.0	0.6232580150489894	-0.43773632094892456	0.0	0.6879451262083707	-0.3935131046592959	0.0	0.5286967153812626	-0.4294411707663335	0.0	0.6132012254392333	-0.43042614825670256	0.0	0.6757145093787617	-0.39006388143835624	0.0
53	1.7755	0.4725728161484368	-0.5758716649882922	0.0	0.47440286970391565	-0.5760502513572268	0.0	0.5637765537726244	-0.6921684035622077	0.0	0.5014313395654288	-0.8188162329840062	0.0	0.5436118814861705	-0.8427296416765806	0.0	0.532366403573738	-0.845792728477479	0.0	0.48168597419370185	-0.8318026665104733	0.0	0.472296143293866	-0.5733140160662347	0.0	0.5585863463955267	-0.6913037456266733	0.0	0.5014728567454638	-0.8142164597355301	0.0	0.5467287919969529	-0.838728027799139	0.0	0.5392295310643521	-0.8361725198678108	0.0	0.4787738972527257	-0.8248181734480207	0.0	0.5505287389578537	-0.4200592036661222	0.0	0.5969957847623938	-0.3480849165365779	0.0	0.6059432146519731	-0.39420151979242996	0.0	0.5447658716313355	-0.43141292691594446	0.0	0.6341226975742621	-0.4395812176678207	0.0	0.7024365109895222	-0.40063606067969665	0.0	0.539108287596183	-0.42747846822267366	0.0	0.6237259492576696	-0.4331721405402787	0.0	0.6898464108659558	-0.3976680635050186	0.0
54	1.8090000000000002	0.47941512248772994	-0.5722868484241618	0.0	0.48134458811436653	-0.5716857923259299	0.0	0.5664366669388888	-0.6908748214717769	0.0	0.5021401364877662	-0.8170575601185333	0.0	0.5425585203247684	-0.8421587834664839	0.0	0.5313380360202351	-0.845123224631824	0.0	0.4820105217965599	-0.83062281473223	0.0	0.4792345021229713	-0.5689213252757115	0.0	0.5608355894169788	-0.6903280738520958	0.0	0.5022563240530528	-0.8123368304316103	0.0	0.5468554201453477	-0.8375538117334003	0.0	0.5396213161143203	-0.8345412833296363	0.0	0.47860539703538435	-0.8229208382005755	0.0	0.5610375326424413	-0.4190074562824403	0.0	0.6113264479911362	-0.34704660742022003	0.0	0.617427147743632	-0.39359966917246203	0.0	0.5558578889043457	-0.4290515155144204	0.0	0.6444587678276344	-0.4412229071629295	0.0	0.7166579791676123	-0.4089407695868663	0.0	0.5496169914696836	-0.42486431495968885	0.0	0.6346303424166881	-0.43551920800939153	0.0	0.7043963678948824	-0.4060204466791592	0.0
55	1.8425	0.4862929835553154	-0.5678475457496005	0.0	0.48849731535427277	-0.5666838481309607	0.0	0.5682103626856503	-0.6888694941133151	0.0	0.503022387224635	-0.8149328211042018	0.0	0.5422007285611407	-0.8416420762900539	0.0	0.5311787522938087	-0.844351405842517	0.0	0.4829706621745356	-0.8290698455725697	0.0	0.4863859170076703	-0.5639456442603311	0.0	0.5622094088336261	-0.688624020913641	0.0	0.5028210905118186	-0.8103313126680078	0.0	0.5468723357849568	-0.8362532849021499	0.0	0.5396713230633119	-0.833107563894528	0.0	0.47895798257741	-0.8206611807008968	0.0	0.571810888813829	-0.41730837535215987	0.0	0.6258956167496723	-0.3460397844562303	0.0	0.6288272398106457	-0.3931396163653114	0.0	0.5671553383930265	-0.4260929824146822	0.0	0.654546349919126	-0.4428564970129119	0.0	0.7307745644007348	-0.41834414225515204	0.0	0.560435255668218	-0.4215683443244094	0.0	0.6459424258729479	-0.4372689065970246	0.0	0.7191413367595447	-0.41455571233659055	0.0
56	1.8760000000000001	0.49324301588756436	-0.5628065406564637	0.0	0.4958877614792123	-0.5612322170231863	0.0	0.5693181578338301	-0.6862480828225684	0.0	0.50410955837036	-0.8124531666574933	0.0	0.5426661785566869	-0.8411933012994172	0.0	0.5320739400530479	-0.8434899828886128	0.0	0.4844191955626064	-0.8270690215023454	0.0	0.49369975835702756	-0.5585749233316678	0.0	0.5630475051007195	-0.6862879892252818	0.0	0.5032150892694522	-0.8082138922408404	0.0	0.5466847253833444	-0.8350340943335849	0.0	0.5394304556419788	-0.8321417991133628	0.0	0.4799250285785687	-0.8182325503263782	0.0	0.5827204828610564	-0.4149609229018544	0.0	0.6407701382912002	-0.3451289769383945	0.0	0.640088443670468	-0.39294737157811943	0.0	0.5785521233407983	-0.42261278200607927	0.0	0.6644903916167901	-0.4446694230380729	0.0	0.7445585834357386	-0.42847299515485726	0.0	0.5716375996597395	-0.41768115761045405	0.0	0.6574313987559922	-0.438618821221164	0.0	0.7335414022599024	-0.42285976054630986	0.0
57	1.9095000000000002	0.5002000991569219	-0.5573595932191079	0.0	0.5034117240668418	-0.555577240661947	0.0	0.5699970903012167	-0.68317900205287	0.0	0.5053093748391311	-0.8096811018483894	0.0	0.5438119563700402	-0.840680070674811	0.0	0.5338889564620796	-0.8424501995875153	0.0	0.48607645399876026	-0.8245569329537435	0.0	0.5010177582079159	-0.5530066720757991	0.0	0.5636314595942771	-0.6834387452049253	0.0	0.5034738097496299	-0.8058534120468019	0.0	0.5464163765177852	-0.8338771951559344	0.0	0.5391189143847214	-0.8315406705342829	0.0	0.481311859371471	-0.8156800872982457	0.0	0.593668226337248	-0.4120045476801788	0.0	0.6555900872477937	-0.3443887074457895	0.0	0.6510998578722135	-0.3929963784366511	0.0	0.589849467971993	-0.4188329862171847	0.0	0.6742099013876817	-0.4467267145028446	0.0	0.7574672218377244	-0.4389447460938102	0.0	0.5831779082705068	-0.4135394318966937	0.0	0.6688043202201506	-0.4399444942899891	0.0	0.7469776441581052	-0.4309021052285458	0.0
58	1.943	0.5071597911519903	-0.551461620377033	0.0	0.5109760849389523	-0.5498115082195301	0.0	0.5705090367097203	-0.6797282734528953	0.0	0.5064554527644111	-0.8065893900785347	0.0	0.5453616675195272	-0.8398370813174222	0.0	0.536249645222607	-0.841015045752526	0.0	0.4876542712758208	-0.8213777019254835	0.0	0.508254266348094	-0.5472793268910063	0.0	0.5641725066766503	-0.6800895068830444	0.0	0.5036731158988296	-0.8029641896053445	0.0	0.5464277586340899	-0.8325199260699276	0.0	0.5391001089484562	-0.8308023224005116	0.0	0.482834436652529	-0.81277593501383	0.0	0.6047858163853725	-0.4085586192176994	0.0	0.669960498599496	-0.34398420404489005	0.0	0.6619630923800565	-0.3931640208576537	0.0	0.6010057993903289	-0.415042702003248	0.0	0.6835974426415931	-0.44898788940861145	0.0	0.7690986922104712	-0.44959605163393024	0.0	0.5950665945676109	-0.409571388597319	0.0	0.6798705729329133	-0.4416128776145512	0.0	0.7590912407489921	-0.4391157619069014	0.0
59	1.9765000000000001	0.5142027432321038	-0.5448892121109377	0.0	0.5185573649120662	-0.5437778991937551	0.0	0.5711050574319207	-0.6757663978669586	0.0	0.5074701076506081	-0.8030090906275158	0.0	0.5470690896171967	-0.8384182181648325	0.0	0.5387540200037018	-0.8389821789832533	0.0	0.48903241251214774	-0.8173284308172065	0.0	0.5154748188448027	-0.5412082597082533	0.0	0.5648695229019113	-0.6761143614197107	0.0	0.5039755973192624	-0.7992766799487707	0.0	0.5470613635898903	-0.8307017210953099	0.0	0.5396702621027265	-0.8293724985191038	0.0	0.4843545223541447	-0.8091960472619631	0.0	0.6163983041937457	-0.404836121525713	0.0	0.6839615028961374	-0.34410630882688326	0.0	0.6730324545716374	-0.3933493176006445	0.0	0.6122880945562039	-0.41138741908913834	0.0	0.6926384921104649	-0.4514588898211239	0.0	0.779414416443905	-0.4604340322235928	0.0	0.6075711500061258	-0.40600160941789726	0.0	0.6906732747155155	-0.44384870203489896	0.0	0.7699328098552114	-0.44802810248659075	0.0
